<svg width="1172" height="1172" viewBox="0 0 1172 1172" fill="none" xmlns="http://www.w3.org/2000/svg">
<rect width="1172" height="1172" rx="586" fill="white"/>
<path d="M752.021 560.436C749.005 558.991 745.943 557.6 742.84 556.269C737.437 456.712 683.038 399.716 591.695 399.133C591.281 399.13 590.869 399.13 590.455 399.13C535.82 399.13 490.381 422.451 462.414 464.888L512.65 499.349C533.542 467.65 566.332 460.892 590.479 460.892C590.758 460.892 591.038 460.892 591.314 460.895C621.39 461.087 644.086 469.831 658.775 486.884C669.464 499.3 676.614 516.456 680.154 538.108C653.488 533.575 624.65 532.182 593.82 533.95C506.976 538.952 451.145 589.602 454.895 659.981C456.797 695.681 474.582 726.394 504.972 746.457C530.665 763.417 563.757 771.711 598.149 769.834C643.568 767.344 679.199 750.015 704.056 718.329C722.934 694.267 734.874 663.084 740.146 623.793C761.791 636.856 777.833 654.046 786.692 674.71C801.757 709.838 802.636 767.562 755.535 814.623C714.268 855.85 664.663 873.685 589.695 874.236C506.536 873.62 443.644 846.951 402.754 794.968C364.463 746.293 344.674 675.986 343.936 586C344.674 496.013 364.463 425.706 402.754 377.031C443.644 325.049 506.535 298.38 589.694 297.762C673.456 298.385 737.444 325.182 779.9 377.415C800.718 403.029 816.413 435.24 826.76 472.798L885.629 457.091C873.088 410.862 853.353 371.026 826.498 337.989C772.069 271.024 692.466 236.711 589.899 236H589.489C487.131 236.709 408.419 271.152 355.541 338.372C308.486 398.19 284.214 481.422 283.399 585.754L283.396 586L283.399 586.246C284.214 690.577 308.486 773.811 355.541 833.629C408.419 900.847 487.131 935.293 589.489 936H589.899C680.901 935.369 745.046 911.544 797.889 858.748C867.025 789.678 864.943 703.101 842.156 649.952C825.808 611.838 794.64 580.882 752.021 560.436ZM594.898 708.161C556.835 710.305 517.292 693.22 515.342 656.627C513.897 629.495 534.652 599.22 597.234 595.613C604.401 595.2 611.434 594.998 618.342 594.998C641.074 594.998 662.34 597.206 681.674 601.433C674.463 691.492 632.164 706.116 594.898 708.161Z" fill="black"/>
</svg>
